# xmcd
#
# Track frame offsets:
#	150
#	24375
#	41287
#	59587
#	86400
#	102600
#	115650
#	131100
#	145762
#	162225
#
# Disc length: 2417 seconds
#
# Revision: 2
# Processed by: cddbd v1.4PL0 Copyright (c) Steve Scherf et al.
# Submitted via: audiograbber 1.81.03
#
DISCID=82096f0a
DTITLE=Various Artist - Big City Blues (ED CD 7017)
DYEAR=1996
DGENRE=Blues
TTITLE0=Lowell Fulson - Working Man
TTITLE1=Jimmy McCracklin - Boogie Down
TTITLE2=Barbara Lynn -  This Is The Thanks I Get
TTITLE3=Larry Davis - Goin' Out West (Part 1 and Part 2)
TTITLE4=Smokey Wilson - Don't Burn Down L.A.
TTITLE5=The Johnny Nocturne Band - Rebop Jump
TTITLE6=Ted Hawkins - My Last Goodbye
TTITLE7=Angela Strehli - Can't Stop These Teardrops
TTITLE8=Jimmy McCracklin, Smokey Wilson, Larry Davis and Lowell Fulson - Help The
TTITLE8=Bear
TTITLE9=Tracy Nelson - Go Down Sunshine
EXTD=West Coast Style
EXTT0=
EXTT1=
EXTT2=
EXTT3=
EXTT4=
EXTT5=
EXTT6=
EXTT7=
EXTT8=
EXTT9=
PLAYORDER=
